<svg width="689" height="154" viewBox="0 0 689 154" fill="none" xmlns="http://www.w3.org/2000/svg">
<path d="M608.447 152.223L656.494 5.10752L686.703 15.0773L635.544 152.223H608.447ZM456.312 152.223V5.55536H486.986V17.6399H487.593C491.68 12.4972 496.902 8.38564 502.842 5.63197C508.783 2.87829 515.28 1.5584 521.816 1.77716C552.917 1.77716 574.94 27.368 574.94 61.6455C574.94 92.9587 553.108 119.324 521.816 119.324C515.684 119.572 509.572 118.478 503.9 116.118C498.227 113.758 493.13 110.189 488.958 105.655V152.216L456.312 152.223ZM487.589 60.6574C487.531 64.3134 488.195 67.9445 489.544 71.3393C490.892 74.734 492.898 77.8245 495.444 80.4307C497.99 83.0369 501.025 85.1067 504.372 86.5195C507.72 87.9323 511.314 88.6599 514.943 88.6599C518.573 88.6599 522.166 87.9323 525.514 86.5195C528.862 85.1067 531.897 83.0369 534.443 80.4307C536.988 77.8245 538.994 74.734 540.343 71.3393C541.691 67.9445 542.356 64.3134 542.297 60.6574C542.38 56.986 541.734 53.3349 540.396 49.9187C539.059 46.5024 537.057 43.3898 534.509 40.7637C531.961 38.1376 528.917 36.051 525.557 34.6264C522.197 33.2018 518.589 32.468 514.943 32.468C511.298 32.468 507.689 33.2018 504.329 34.6264C500.969 36.051 497.926 38.1376 495.377 40.7637C492.829 43.3898 490.828 46.5024 489.49 49.9187C488.153 53.3349 487.506 56.986 487.589 60.6574ZM319.065 152.223V5.55536H349.76V17.6399H350.349C354.441 12.4924 359.669 8.37806 365.617 5.62422C371.565 2.87038 378.069 1.55309 384.612 1.77716C415.695 1.77716 437.736 27.368 437.736 61.6455C437.736 92.9587 415.886 119.324 384.612 119.324C378.479 119.575 372.365 118.483 366.692 116.123C361.018 113.763 355.921 110.191 351.75 105.655V152.216L319.065 152.223ZM350.353 60.6574C350.312 64.3027 350.989 67.9201 352.345 71.2999C353.702 74.6797 355.71 77.7548 358.254 80.3472C360.799 82.9396 363.828 84.9977 367.168 86.4024C370.507 87.807 374.09 88.5303 377.709 88.5303C381.328 88.5303 384.91 87.807 388.25 86.4024C391.589 84.9977 394.619 82.9396 397.163 80.3472C399.707 77.7548 401.716 74.6797 403.072 71.2999C404.428 67.9201 405.106 64.3027 405.065 60.6574C405.136 56.9928 404.481 53.3506 403.139 49.944C401.796 46.5374 399.793 43.4347 397.245 40.8176C394.698 38.2005 391.658 36.1215 388.304 34.7022C384.949 33.2829 381.347 32.5518 377.709 32.5518C374.07 32.5518 370.468 33.2829 367.114 34.7022C363.759 36.1215 360.719 38.2005 358.172 40.8176C355.625 43.4347 353.621 46.5374 352.279 49.944C350.936 53.3506 350.281 56.9928 350.353 60.6574ZM171.42 60.4655C171.438 27.9473 194.872 1.77716 226.132 1.77716C239.539 1.77716 251.906 7.14057 258.203 17.2418H258.609V5.55536H291.27V115.564H258.609V103.668H258.203C253.497 113.382 240.499 119.307 226.132 119.307C193.86 119.324 171.438 93.7585 171.438 60.4619L171.42 60.4655ZM204.088 60.8636C204.036 64.5192 204.709 68.1485 206.068 71.5385C207.427 74.9286 209.444 78.0111 212.001 80.6054C214.558 83.1997 217.604 85.2535 220.959 86.6463C224.315 88.0391 227.913 88.7429 231.542 88.7164C235.171 88.6899 238.758 87.9336 242.093 86.492C245.428 85.0503 248.444 82.9522 250.963 80.3209C253.483 77.6895 255.455 74.5778 256.765 71.1682C258.075 67.7587 258.696 64.12 258.592 60.4655C258.595 56.7951 257.881 53.1599 256.488 49.768C255.096 46.3761 253.054 43.294 250.478 40.6979C247.903 38.1019 244.844 36.0429 241.478 34.6387C238.112 33.2345 234.503 32.5127 230.86 32.5146C227.247 32.5767 223.682 33.3626 220.373 34.8265C217.065 36.2903 214.078 38.4029 211.588 41.0411C209.098 43.6793 207.154 46.7903 205.87 50.1929C204.585 53.5955 203.985 57.2216 204.106 60.86L204.088 60.8636ZM42.8495 115.568L71.8266 4.90137L99.791 10.6629L112.03 56.8686L98.1575 104.364L83.6072 47.7269L66.1638 115.564L42.8495 115.568ZM105.457 115.568L137.754 5.07909L165.338 10.7659L133.267 115.56L105.457 115.568ZM2.23291 11.9886L31.5769 4.29714L47.5879 57.3519L33.1858 112.39L2.23291 11.9886ZM579.029 14.6223L612.081 4.26515L629.423 55.2691L613.606 103.7L579.029 14.6223Z" fill="#29D368"/>
</svg>
