<svg xmlns="http://www.w3.org/2000/svg" width="195.284" height="43.328"><path data-name="Union 2" d="M172.453 42.828l13.618-41.391 8.562 2.805-14.5 38.586zm-43.12 0V1.563h8.694v3.4h.172a11.919 11.919 0 019.7-4.463c8.815 0 15.057 7.2 15.057 16.844 0 8.81-6.188 16.228-15.057 16.228a12.042 12.042 0 01-9.313-3.846v13.1zm8.865-25.762a7.754 7.754 0 1015.506 0 7.755 7.755 0 10-15.506 0zM90.433 42.828V1.563h8.7v3.4h.167A11.922 11.922 0 01109.011.5c8.81 0 15.057 7.2 15.057 16.844 0 8.81-6.193 16.228-15.057 16.228a12.03 12.03 0 01-9.314-3.846v13.1zm8.868-25.762a7.754 7.754 0 1015.507 0 7.755 7.755 0 10-15.507 0zm-50.715-.054C48.591 7.863 55.233.5 64.093.5c3.8 0 7.305 1.509 9.09 4.351h.115V1.563h9.257v30.951h-9.257v-3.347h-.115c-1.334 2.733-5.018 4.4-9.09 4.4-9.147.005-15.502-7.188-15.502-16.556zm9.259.112a7.726 7.726 0 1015.448-.112 7.856 7.856 0 00-7.86-7.864 7.719 7.719 0 00-7.583 7.975zm-45.7 15.391l8.213-31.136L28.284 3l3.469 13-3.932 13.363-4.124-15.935-4.944 19.086zm17.745 0l9.154-31.086 7.818 1.6-9.09 29.484zM.633 3.373L8.95 1.209l4.538 14.927-4.082 15.485zm163.482.741l9.368-2.914 4.915 14.35-4.483 13.626z" fill="#29d368" stroke="rgba(0,0,0,0)"/></svg>